<?xml version="1.0" encoding="UTF-8"?><svg id="Camada_2" xmlns="http://www.w3.org/2000/svg" viewBox="0 0 1141.11 251.21"><defs><style>.cls-1{fill:#fff;}.cls-2{fill:#3b82f6;}</style></defs><g id="Camada_1-2"><path class="cls-2" d="M285.88,144.07l12.33-1.05c7.32,10.64-10.06,7.41-11.89,9.95l-3.34,21.45c.88,3.45,20.1.09,15.47,9.63-2.43,3.45-16.8-2.45-18.47-.98l-8.11,17.33c-.02,1.04,19.83,7.21,13.56,12.52-4.66,3.95-14.19-6.78-19.84-6.06-35.15,40.15-98.14,49.82-148.79,41.69-30.31-4.86-62.22-18.22-82.37-41.71-5.5.52-14.22,9.09-19.34,6.58-7.86-3.86,9.45-11.72,12.94-12.53l-8.1-17.77c-2.89-1.83-21.46,7.26-18.7-2.45,1.63-5.74,15.73-2.75,15.81-7.1.1-4.97-4.4-14.53-3.39-20.61-3.47-2.44-13.14-.22-13.6-5.47-.74-8.34,13.48-1.8,14.03-2.44.7-11.98,4.12-23.6,8.77-34.6C10.13,83.54-.06,43.09,11.88,14.63,19.8-4.22,31.19-1.6,48.31,4.56c19.66,7.08,36.5,21.48,52.25,34.71,19.42-4.44,38.86-8.18,58.96-7.05,13.52.76,26.69,4.42,39.88,7.06,15.15-12.06,30.15-25.06,48.16-32.82,23.55-10.15,38.03-10.47,43.86,17.79,3.89,18.83,1.01,42.28-4.27,60.68-1.61,5.61-9,21.3-9.23,24.75-.18,2.67,4.29,12.58,5.29,16.58,1.42,5.68,2.46,11.93,2.67,17.8ZM273.88,100.14c8.47-21.3,12.87-44.33,11.04-67.4-.45-5.62-4.73-22.46-10.74-24.21-15.03-4.39-47.81,18.5-59.73,27.77-3.21,2.5-11.51,11.81-15,11.85-2.49.03-12.38-3.79-16.32-4.58-28.45-5.74-55.54-4.18-83.25,4.15-8.77-5.48-16.08-13.17-24.56-19.24-9.33-6.69-21.85-14.69-32.76-18.18-14.39-4.6-20.41-4.7-25.23,10.8-5.86,18.82-2.36,43.63,3,62.31,1.63,5.7,4.09,11.07,5.73,16.75,2.29.57,1.63-.43,2.28-1.26,3.1-3.99,5.65-9.73,8.87-14.04,8.95-11.97,20.46-21.81,32.81-30.15,1.04-4.23-19.26-13.46-21.06-15.85-2.42-3.23.83-7.97,4.07-7.17,3.99.98,24.38,16.89,25.54,20.52.37,1.16.64,2.26.46,3.49-.51,3.53-14.85,12.3-18.54,15.5-21.9,18.95-36.32,45.9-39.43,74.84,5.14,2.38,23.12,1.51,25.51,6.02,4.94,9.31-20.49,2.14-23.29,2.2l-2.17,1.36,3.87,17.99c4.57.26,20.45-5.84,21.93.11s-15.02,5.95-18.88,7.3c-.96,1.12,5.47,13.55,7.01,14.51,3.25,2.03,17.85-8.64,19.83-2.89,2.29,6.66-9.72,7.85-13.84,10.82,19.74,20.98,47.55,32.53,75.74,37.14,48.55,7.95,106.78-.62,142.1-37.14.02-1.84-13.98-3.43-14.72-9.15-1.2-9.29,16.75,1.29,20.26,2.54l8.46-15.36c-3.51-2.07-18.79-2.73-19.87-6.14l.38-3.34c2.67-5.27,16.39,2.4,20.86.91,3.38-1.13,3.36-15.43,4.64-18.86-2.07-1.81-29.89,10.05-25.9-2.36,1.05-3.27,20.9-4.13,24.8-5.74-.13-24.01-14.39-52.03-31.34-68.79-4.45-4.4-24.07-17.53-25.1-20.9-.38-1.23-.49-1.99-.26-3.29.67-3.68,24.19-22.08,27.18-21.53,2.63.49,4.74,4.7,2.72,7.39-1.5,2-13.86,7.82-17.54,11.43-1.18,1.16-3.1,2.24-2.46,4.33,8.69,6.92,17.96,13.29,25.44,21.58,6.63,7.36,11.37,16.22,17.46,23.97Z"/><path class="cls-1" d="M273.88,100.14c-6.09-7.74-10.83-16.61-17.46-23.97-7.48-8.29-16.74-14.66-25.44-21.58-.64-2.1,1.28-3.18,2.46-4.33,3.68-3.6,16.04-9.43,17.54-11.43,2.02-2.7-.09-6.91-2.72-7.39-3-.55-26.52,17.84-27.18,21.53-.23,1.3-.12,2.06.26,3.29,1.03,3.36,20.65,16.5,25.1,20.9,16.95,16.75,31.21,44.78,31.34,68.79-3.9,1.61-23.75,2.46-24.8,5.74-3.98,12.41,23.83.55,25.9,2.36-1.28,3.43-1.27,17.73-4.64,18.86-4.47,1.5-18.19-6.17-20.86-.91l-.38,3.34c1.08,3.41,16.36,4.07,19.87,6.14l-8.46,15.36c-3.51-1.25-21.46-11.83-20.26-2.54.74,5.72,14.74,7.3,14.72,9.15-35.32,36.52-93.55,45.09-142.1,37.14-28.19-4.62-55.99-16.16-75.74-37.14,4.12-2.97,16.13-4.16,13.84-10.82-1.97-5.75-16.57,4.92-19.83,2.89-1.54-.96-7.98-13.39-7.01-14.51,3.86-1.35,20.31-1.57,18.88-7.3s-17.36.15-21.93-.11l-3.87-17.99,2.17-1.36c2.8-.06,28.23,7.11,23.29-2.2-2.4-4.51-20.37-3.64-25.51-6.02,3.11-28.94,17.53-55.89,39.43-74.84,3.69-3.2,18.03-11.97,18.54-15.5.18-1.23-.09-2.33-.46-3.49-1.17-3.63-21.55-19.54-25.54-20.52-3.24-.8-6.49,3.94-4.07,7.17,1.79,2.39,22.1,11.62,21.06,15.85-12.34,8.33-23.86,18.18-32.81,30.15-3.22,4.31-5.77,10.06-8.87,14.04-.64.82.01,1.82-2.28,1.26-1.64-5.68-4.09-11.05-5.73-16.75-5.36-18.68-8.86-43.49-3-62.31,4.83-15.5,10.84-15.4,25.23-10.8,10.91,3.49,23.43,11.5,32.76,18.18,8.48,6.08,15.79,13.76,24.56,19.24,27.71-8.33,54.8-9.89,83.25-4.15,3.94.8,13.83,4.61,16.32,4.58,3.49-.04,11.78-9.35,15-11.85,11.92-9.26,44.7-32.16,59.73-27.77,6,1.75,10.29,18.59,10.74,24.21,1.83,23.07-2.57,46.1-11.04,67.4ZM114.18,137.04c0-13.36-10.84-24.18-24.21-24.18s-24.21,10.83-24.21,24.18,10.84,24.18,24.21,24.18,24.21-10.83,24.21-24.18ZM234.49,136.93c0-13.41-10.88-24.27-24.31-24.27s-24.31,10.87-24.31,24.27,10.88,24.27,24.31,24.27,24.31-10.87,24.31-24.27ZM119.22,169.27c-2.34,2.28,1.6,8.77,3.37,10.62,7.38,7.72,19.78,6.57,27.03-.79,6.41,4.02,11.52,7.35,19.62,5.65,5.71-1.2,18.54-12.65,9.36-16.65-5.19,6.68-13.03,15.1-21.52,7.29-9-8.28,8-11.85,7.87-18.88-.12-6.29-25.94-5.95-28.91-1.85-3.88,5.49,10.4,12.9,10.63,14.81-4.82,13.46-18.4,10.89-23.68-1.02l-3.76.82Z"/><path class="cls-2" d="M234.49,136.93c0,13.41-10.88,24.27-24.31,24.27s-24.31-10.87-24.31-24.27,10.88-24.27,24.31-24.27,24.31,10.87,24.31,24.27ZM210.17,131.4c0-4.19-3.4-7.58-7.59-7.58s-7.59,3.39-7.59,7.58,3.4,7.58,7.59,7.58,7.59-3.39,7.59-7.58Z"/><path class="cls-2" d="M114.18,137.04c0,13.36-10.84,24.18-24.21,24.18s-24.21-10.83-24.21-24.18,10.84-24.18,24.21-24.18,24.21,10.83,24.21,24.18ZM91.15,131.28c0-4.39-3.56-7.95-7.96-7.95s-7.96,3.56-7.96,7.95,3.56,7.95,7.96,7.95,7.96-3.56,7.96-7.95Z"/><path class="cls-2" d="M119.22,169.27l3.76-.82c5.28,11.91,18.86,14.48,23.68,1.02-.23-1.91-14.51-9.32-10.63-14.81,2.97-4.11,28.79-4.45,28.91,1.85.14,7.03-16.87,10.6-7.87,18.88,8.48,7.81,16.33-.61,21.52-7.29,9.18,4-3.65,15.46-9.36,16.65-8.1,1.7-13.21-1.64-19.62-5.65-7.25,7.36-19.65,8.51-27.03.79-1.77-1.85-5.71-8.34-3.37-10.62Z"/><ellipse class="cls-1" cx="202.58" cy="131.4" rx="7.59" ry="7.58"/><ellipse class="cls-1" cx="83.19" cy="131.28" rx="7.96" ry="7.95"/><path class="cls-2" d="M394.01,191.24V61.64h14.58l48.96,103.23,48.69-103.23h14.76v129.51h-15.21v-94.32l-44.01,94.41h-8.55l-44.01-94.41v94.41h-15.21Z"/><path class="cls-2" d="M583.28,193.94c-9.54,0-17.86-2.12-24.97-6.34-7.11-4.23-12.65-10.14-16.61-17.73-3.96-7.59-5.94-16.45-5.94-26.59s1.95-19.81,5.85-27.59c3.9-7.77,9.34-13.77,16.33-18,6.99-4.23,15.19-6.35,24.61-6.35s18.1,2.25,24.97,6.75,12.03,10.92,15.48,19.26c3.45,8.34,4.93,18.27,4.46,29.79h-16.2v-5.76c-.18-11.94-2.61-20.86-7.29-26.77-4.68-5.91-11.64-8.87-20.88-8.87-9.9,0-17.43,3.18-22.59,9.54-5.16,6.36-7.74,15.48-7.74,27.36s2.58,20.34,7.74,26.64c5.16,6.3,12.51,9.45,22.05,9.45,6.42,0,12-1.47,16.74-4.41,4.74-2.94,8.46-7.17,11.16-12.69l15.39,5.31c-3.78,8.58-9.47,15.23-17.05,19.93-7.59,4.71-16.1,7.07-25.52,7.07ZM547.37,147.14v-12.87h71.82v12.87h-71.82Z"/><path class="cls-2" d="M668.24,193.94c-7.26,0-13.34-1.34-18.23-4-4.89-2.67-8.58-6.2-11.07-10.58-2.49-4.38-3.73-9.18-3.73-14.4s.96-9.51,2.88-13.23c1.92-3.72,4.66-6.84,8.24-9.36,3.57-2.52,7.81-4.5,12.73-5.94,4.62-1.26,9.78-2.35,15.48-3.29,5.7-.93,11.49-1.79,17.37-2.57,5.88-.78,11.4-1.53,16.56-2.25l-5.76,3.33c.12-8.58-1.62-14.95-5.22-19.13-3.6-4.17-9.84-6.25-18.72-6.25-5.88,0-11.02,1.35-15.43,4.05s-7.52,7.02-9.32,12.96l-15.21-4.59c2.34-8.52,6.87-15.21,13.59-20.07,6.72-4.86,15.57-7.29,26.55-7.29,8.82,0,16.39,1.58,22.72,4.73,6.33,3.15,10.87,7.91,13.63,14.26,1.38,3,2.25,6.25,2.61,9.77.36,3.51.54,7.19.54,11.02v60.12h-14.22v-23.31l3.33,2.16c-3.66,7.92-8.79,13.88-15.39,17.87-6.6,3.99-14.58,5.99-23.94,5.99ZM670.67,180.53c5.76,0,10.75-1.04,14.98-3.11,4.23-2.07,7.63-4.8,10.22-8.19,2.58-3.39,4.26-7.09,5.04-11.12.84-3,1.32-6.33,1.44-9.99.12-3.66.18-6.51.18-8.55l5.58,2.43c-5.22.78-10.37,1.5-15.43,2.16-5.07.66-9.84,1.35-14.31,2.07-4.47.72-8.51,1.59-12.11,2.61-2.64.84-5.12,1.93-7.42,3.28-2.31,1.35-4.17,3.06-5.58,5.13-1.41,2.07-2.12,4.61-2.12,7.6,0,2.64.67,5.16,2.03,7.56,1.35,2.4,3.45,4.35,6.3,5.85,2.85,1.5,6.58,2.25,11.21,2.25Z"/><path class="cls-2" d="M738.62,191.24V58.94h16.02v132.3h-16.02Z"/><path class="cls-2" d="M812.24,191.24v-119.52h-46.44v-10.08h103.23v10.08h-46.44v119.52h-10.35Z"/><path class="cls-2" d="M880.19,74.42v-13.23h10.35v13.23h-10.35ZM880.19,191.24v-97.2h10.35v97.2h-10.35Z"/><path class="cls-2" d="M912.5,191.24v-97.2h9.45v21.87h.9v75.33h-10.35ZM970.37,191.24l.18-64.35c0-8.04-2.19-14.41-6.57-19.13-4.38-4.71-10.08-7.07-17.1-7.07s-12.93,2.45-17.37,7.33c-4.44,4.89-6.66,11.42-6.66,19.58l-7.2-3.6c0-6.3,1.44-11.89,4.32-16.78,2.88-4.89,6.82-8.74,11.83-11.57,5.01-2.82,10.75-4.23,17.23-4.23,5.82,0,11.13,1.23,15.93,3.69,4.8,2.46,8.64,6.17,11.52,11.12s4.32,11.15,4.32,18.58l-.18,66.42h-10.26ZM1028.15,191.24l.18-65.34c0-7.86-2.24-14.02-6.71-18.5-4.47-4.47-10.03-6.71-16.69-6.71-3.78,0-7.52.87-11.21,2.61-3.69,1.74-6.77,4.56-9.23,8.46-2.46,3.9-3.69,9.18-3.69,15.84l-7.29-1.17c-.24-7.08,1.06-13.24,3.92-18.5,2.85-5.25,6.81-9.32,11.88-12.2,5.07-2.88,10.84-4.32,17.33-4.32,9.54,0,17.26,2.94,23.17,8.82,5.91,5.88,8.87,13.92,8.87,24.12l-.18,66.87h-10.35Z"/><path class="cls-2" d="M1096.82,193.94c-9.3,0-17.34-2.09-24.12-6.25-6.78-4.17-12.03-10.08-15.75-17.73-3.72-7.65-5.58-16.7-5.58-27.13s1.84-19.78,5.54-27.5c3.69-7.71,8.91-13.63,15.66-17.78,6.75-4.14,14.77-6.21,24.08-6.21s17.47,2.15,24.17,6.44c6.69,4.29,11.79,10.48,15.3,18.58,3.51,8.1,5.18,17.85,5,29.25h-10.8v-3.6c-.3-13.32-3.3-23.46-9-30.42-5.7-6.96-13.86-10.44-24.48-10.44s-19.46,3.62-25.43,10.84c-5.97,7.23-8.96,17.45-8.96,30.65s2.98,23.22,8.96,30.42c5.97,7.2,14.38,10.8,25.25,10.8,7.5,0,14.05-1.75,19.67-5.26,5.61-3.51,10.06-8.54,13.37-15.08l9.36,4.14c-3.9,8.4-9.54,14.88-16.92,19.44-7.38,4.56-15.81,6.84-25.29,6.84ZM1058.48,145.61v-9.36h76.77v9.36h-76.77Z"/></g></svg>